# xmcd CD database file
#
# Track frame offsets:
#	183
#	13885
#	40165
#	75748
#	106300
#	122678
#	132323
#	149690
#	185600
#	194565
#	239075
#
# Disc length: 3774 seconds
#
# Revision: 0
# Processed by: cddbd v1.5.2PL0 Copyright (c) Steve Scherf et al.
# Submitted via: CDex 1.70beta2
#
DISCID=a50ebc0b
DTITLE=Lito Vitale y los Argentinos - Cuentos de la Media Luna
DYEAR=1995
DGENRE=New Age
TTITLE0=Tango Obertura
TTITLE1=La ribera del Sol
TTITLE2=Cuentos de la Media Luna
TTITLE3=Desde la Montaña
TTITLE4="La Semana en Madrid" (Suite) - a) Gente Nueva
TTITLE5="La Semana en Madrid" (Suite) - b) Viaje Interior
TTITLE6="La Semana en Madrid" (Suite) - c) De Regreso, Urgente
TTITLE7=Bajos Latidos
TTITLE8=Los Cambios Necesarios (Fragmento)
TTITLE9=El Milagro
TTITLE10=Camino de Reencuentros
EXTD=YEAR: 1995
EXTT0=
EXTT1=
EXTT2=
EXTT3=
EXTT4=
EXTT5=
EXTT6=
EXTT7=
EXTT8=
EXTT9=
EXTT10=
PLAYORDER=
